<svg id="visual" viewBox="0 0 960 540" width="960" height="540" xmlns="http://www.w3.org/2000/svg" xmlns:xlink="http://www.w3.org/1999/xlink" version="1.1"><rect x="0" y="0" width="960" height="540" fill="#93A0CA"></rect><defs><linearGradient id="grad1_0" x1="43.8%" y1="0%" x2="100%" y2="100%"><stop offset="14.444444444444446%" stop-color="#f6907c" stop-opacity="1"></stop><stop offset="85.55555555555554%" stop-color="#f6907c" stop-opacity="1"></stop></linearGradient></defs><defs><linearGradient id="grad1_1" x1="43.8%" y1="0%" x2="100%" y2="100%"><stop offset="14.444444444444446%" stop-color="#f6907c" stop-opacity="1"></stop><stop offset="85.55555555555554%" stop-color="#ef8ca0" stop-opacity="1"></stop></linearGradient></defs><defs><linearGradient id="grad1_2" x1="43.8%" y1="0%" x2="100%" y2="100%"><stop offset="14.444444444444446%" stop-color="#d691bd" stop-opacity="1"></stop><stop offset="85.55555555555554%" stop-color="#ef8ca0" stop-opacity="1"></stop></linearGradient></defs><defs><linearGradient id="grad1_3" x1="43.8%" y1="0%" x2="100%" y2="100%"><stop offset="14.444444444444446%" stop-color="#d691bd" stop-opacity="1"></stop><stop offset="85.55555555555554%" stop-color="#b39acb" stop-opacity="1"></stop></linearGradient></defs><defs><linearGradient id="grad1_4" x1="43.8%" y1="0%" x2="100%" y2="100%"><stop offset="14.444444444444446%" stop-color="#93a0ca" stop-opacity="1"></stop><stop offset="85.55555555555554%" stop-color="#b39acb" stop-opacity="1"></stop></linearGradient></defs><defs><linearGradient id="grad2_0" x1="0%" y1="0%" x2="56.3%" y2="100%"><stop offset="14.444444444444446%" stop-color="#f6907c" stop-opacity="1"></stop><stop offset="85.55555555555554%" stop-color="#f6907c" stop-opacity="1"></stop></linearGradient></defs><defs><linearGradient id="grad2_1" x1="0%" y1="0%" x2="56.3%" y2="100%"><stop offset="14.444444444444446%" stop-color="#ef8ca0" stop-opacity="1"></stop><stop offset="85.55555555555554%" stop-color="#f6907c" stop-opacity="1"></stop></linearGradient></defs><defs><linearGradient id="grad2_2" x1="0%" y1="0%" x2="56.3%" y2="100%"><stop offset="14.444444444444446%" stop-color="#ef8ca0" stop-opacity="1"></stop><stop offset="85.55555555555554%" stop-color="#d691bd" stop-opacity="1"></stop></linearGradient></defs><defs><linearGradient id="grad2_3" x1="0%" y1="0%" x2="56.3%" y2="100%"><stop offset="14.444444444444446%" stop-color="#b39acb" stop-opacity="1"></stop><stop offset="85.55555555555554%" stop-color="#d691bd" stop-opacity="1"></stop></linearGradient></defs><defs><linearGradient id="grad2_4" x1="0%" y1="0%" x2="56.3%" y2="100%"><stop offset="14.444444444444446%" stop-color="#b39acb" stop-opacity="1"></stop><stop offset="85.55555555555554%" stop-color="#93a0ca" stop-opacity="1"></stop></linearGradient></defs><g transform="translate(960, 0)"><path d="M0 540C-30.7 493.2 -61.4 446.3 -99.5 435.8C-137.6 425.3 -183.1 451.1 -212.6 441.5C-242.1 431.8 -255.6 386.8 -294.3 369C-332.9 351.3 -396.7 360.9 -422.2 336.7C-447.6 312.4 -434.7 254.3 -441.5 212.6C-448.2 170.9 -474.6 145.5 -494.3 112.8C-514 80.1 -527 40.1 -540 0L0 0Z" fill="#a29dcd"></path><path d="M0 432C-24.5 394.5 -49.1 357 -79.6 348.6C-110.1 340.2 -146.5 360.9 -170.1 353.2C-193.7 345.5 -204.5 309.4 -235.4 295.2C-266.4 281 -317.4 288.7 -337.8 269.3C-358.1 250 -347.8 203.5 -353.2 170.1C-358.6 136.7 -379.7 116.4 -395.4 90.3C-411.2 64.1 -421.6 32 -432 0L0 0Z" fill="#c595c6"></path><path d="M0 324C-18.4 295.9 -36.8 267.8 -59.7 261.5C-82.5 255.2 -109.9 270.7 -127.6 264.9C-145.3 259.1 -153.4 232.1 -176.6 221.4C-199.8 210.8 -238 216.6 -253.3 202C-268.6 187.5 -260.8 152.6 -264.9 127.6C-268.9 102.5 -284.8 87.3 -296.6 67.7C-308.4 48.1 -316.2 24 -324 0L0 0Z" fill="#e48eb0"></path><path d="M0 216C-12.3 197.3 -24.5 178.5 -39.8 174.3C-55 170.1 -73.2 180.4 -85 176.6C-96.8 172.7 -102.3 154.7 -117.7 147.6C-133.2 140.5 -158.7 144.4 -168.9 134.7C-179.1 125 -173.9 101.7 -176.6 85C-179.3 68.3 -189.8 58.2 -197.7 45.1C-205.6 32 -210.8 16 -216 0L0 0Z" fill="#f58d8f"></path><path d="M0 108C-6.1 98.6 -12.3 89.3 -19.9 87.2C-27.5 85.1 -36.6 90.2 -42.5 88.3C-48.4 86.4 -51.1 77.4 -58.9 73.8C-66.6 70.3 -79.3 72.2 -84.4 67.3C-89.5 62.5 -86.9 50.9 -88.3 42.5C-89.6 34.2 -94.9 29.1 -98.9 22.6C-102.8 16 -105.4 8 -108 0L0 0Z" fill="#f6907c"></path></g><g transform="translate(0, 540)"><path d="M0 -540C36.9 -528.8 73.7 -517.6 117.7 -515.7C161.7 -513.9 212.8 -521.5 234.3 -486.5C255.8 -451.5 247.6 -374 276.2 -346.4C304.8 -318.7 370.2 -340.9 409.7 -326.7C449.2 -312.5 462.9 -261.9 446.9 -215.2C430.9 -168.5 385.2 -125.6 395.8 -90.3C406.4 -55.1 473.2 -27.6 540 0L0 0Z" fill="#a29dcd"></path><path d="M0 -432C29.5 -423 59 -414 94.2 -412.6C129.4 -411.1 170.3 -417.2 187.4 -389.2C204.6 -361.2 198.1 -299.2 221 -277.1C243.8 -255 296.1 -272.7 327.7 -261.4C359.4 -250 370.3 -209.6 357.5 -172.2C344.7 -134.8 308.2 -100.5 316.7 -72.3C325.1 -44.1 378.6 -22 432 0L0 0Z" fill="#c595c6"></path><path d="M0 -324C22.1 -317.3 44.2 -310.5 70.6 -309.4C97 -308.4 127.7 -312.9 140.6 -291.9C153.5 -270.9 148.6 -224.4 165.7 -207.8C182.9 -191.2 222.1 -204.5 245.8 -196C269.5 -187.5 277.7 -157.2 268.1 -129.1C258.5 -101.1 231.1 -75.3 237.5 -54.2C243.8 -33.1 283.9 -16.5 324 0L0 0Z" fill="#e48eb0"></path><path d="M0 -216C14.7 -211.5 29.5 -207 47.1 -206.3C64.7 -205.6 85.1 -208.6 93.7 -194.6C102.3 -180.6 99 -149.6 110.5 -138.5C121.9 -127.5 148.1 -136.4 163.9 -130.7C179.7 -125 185.1 -104.8 178.8 -86.1C172.4 -67.4 154.1 -50.2 158.3 -36.1C162.6 -22 189.3 -11 216 0L0 0Z" fill="#f58d8f"></path><path d="M0 -108C7.4 -105.8 14.7 -103.5 23.5 -103.1C32.3 -102.8 42.6 -104.3 46.9 -97.3C51.2 -90.3 49.5 -74.8 55.2 -69.3C61 -63.7 74 -68.2 81.9 -65.3C89.8 -62.5 92.6 -52.4 89.4 -43C86.2 -33.7 77 -25.1 79.2 -18.1C81.3 -11 94.6 -5.5 108 0L0 0Z" fill="#f6907c"></path></g></svg>